<svg width="121" height="144" viewBox="0 0 121 144" fill="none" xmlns="http://www.w3.org/2000/svg">
<circle cx="60.5" cy="60.5" r="59.0915" fill="#C4C4C4" stroke="white" stroke-width="2.8169"/>
<circle cx="60.5" cy="113.438" r="30.25" fill="#FE2C55"/>
<path fill-rule="evenodd" clip-rule="evenodd" d="M60.5007 100.833C59.1085 100.833 57.9799 101.962 57.9799 103.354V110.916H50.4173C49.0251 110.916 47.8965 112.045 47.8965 113.437C47.8965 114.829 49.0251 115.958 50.4173 115.958H57.9799V123.521C57.9799 124.913 59.1085 126.041 60.5007 126.041C61.8929 126.041 63.0215 124.913 63.0215 123.521V115.958H70.584C71.9762 115.958 73.1048 114.829 73.1048 113.437C73.1048 112.045 71.9762 110.916 70.584 110.916H63.0215V103.354C63.0215 101.962 61.8929 100.833 60.5007 100.833Z" fill="white"/>
</svg>
