<svg width="71" height="47" viewBox="0 0 71 47" fill="none" xmlns="http://www.w3.org/2000/svg">
<path d="M0.168751 46L16.2938 0H23.7313L39.7313 46H31.9813L28.6688 36.4375H11.3563L7.98125 46H0.168751ZM13.1063 31.375H26.8563L20.0438 11.5L13.1063 31.375ZM68.2062 35.0625V35.5625C68.2062 35.8958 68.2271 36.3958 68.2687 37.0625C68.3104 37.6875 68.3937 38.3333 68.5187 39C68.6437 39.6667 68.8312 40.2708 69.0812 40.8125C69.3729 41.3542 69.7479 41.7083 70.2062 41.875L68.2062 46.0625C67.6646 46.0625 67.0812 45.9375 66.4562 45.6875C65.8729 45.4375 65.2896 45.0833 64.7062 44.625C64.1646 44.1667 63.6854 43.6667 63.2687 43.125C62.8937 42.5417 62.6021 41.9167 62.3937 41.25C62.1021 41.9583 61.5812 42.625 60.8312 43.25C60.1229 43.8333 59.3104 44.375 58.3937 44.875C57.4771 45.3333 56.4771 45.6875 55.3937 45.9375C54.3521 46.1875 53.3729 46.3125 52.4562 46.3125C51.0396 46.3125 49.6646 46.125 48.3312 45.75C47.0396 45.375 45.8937 44.7708 44.8937 43.9375C43.8937 43.1042 43.1021 42 42.5187 40.625C41.9771 39.25 41.7062 37.5625 41.7062 35.5625C41.7062 33.6458 42.1021 32 42.8937 30.625C43.7271 29.2083 44.7687 28.0625 46.0187 27.1875C47.3104 26.2708 48.7687 25.6042 50.3937 25.1875C52.0187 24.7292 53.6646 24.5 55.3312 24.5H60.6437C60.6437 22.4583 60.5396 20.8333 60.3312 19.625C60.1229 18.4167 59.7687 17.5417 59.2687 17C58.7687 16.4167 58.1437 16.0625 57.3937 15.9375C56.6854 15.7708 55.8312 15.6875 54.8312 15.6875C53.9146 15.6875 53.0396 15.8125 52.2062 16.0625C51.4146 16.2708 50.6646 16.5417 49.9562 16.875C49.2896 17.1667 48.6854 17.5 48.1437 17.875C47.6437 18.25 47.2687 18.5417 47.0187 18.75L44.2062 14.4375C44.6229 13.9792 45.2479 13.5208 46.0812 13.0625C46.9146 12.5625 47.8729 12.125 48.9562 11.75C50.0396 11.375 51.2062 11.0833 52.4562 10.875C53.7479 10.625 55.0812 10.5 56.4562 10.5C57.7062 10.5 58.9146 10.625 60.0812 10.875C61.2896 11.125 62.3729 11.5417 63.3312 12.125C64.3312 12.7083 65.1854 13.5 65.8937 14.5C66.6437 15.4583 67.1646 16.6667 67.4562 18.125C67.7479 19.5833 67.9354 21.0625 68.0187 22.5625C68.1437 24.0208 68.2062 25.4792 68.2062 26.9375V35.0625ZM60.7062 28.9375H56.7062C55.8729 28.9375 54.9979 29.0208 54.0812 29.1875C53.1646 29.3542 52.3104 29.6667 51.5187 30.125C50.7271 30.5833 50.0604 31.25 49.5187 32.125C49.0187 32.9583 48.7687 34.0417 48.7687 35.375C48.7687 37.4583 49.2271 38.9583 50.1437 39.875C51.1021 40.7917 52.4771 41.25 54.2687 41.25C55.5187 41.25 56.7062 40.9167 57.8312 40.25C58.9979 39.5833 59.9562 38.6875 60.7062 37.5625V28.9375Z" fill="#434343"/>
</svg>
