<svg width="77" height="73" viewBox="0 0 77 73" fill="none" xmlns="http://www.w3.org/2000/svg">
<path fill-rule="evenodd" clip-rule="evenodd" d="M76.9367 32.3944C76.9367 33.5958 76.8599 34.782 76.7104 35.9495C75.5706 48.1421 64.8523 64.3811 42.1675 72.5963C41.2636 72.9236 40.317 72.2467 40.317 71.2853V64.7669C39.8496 64.7813 39.3801 64.7887 38.9085 64.7887C17.9062 64.7887 0.880371 50.2852 0.880371 32.3944C0.880371 14.5035 17.9062 0 38.9085 0C59.9109 0 76.9367 14.5035 76.9367 32.3944ZM23.4156 39.4366C26.5271 39.4366 29.0494 36.9142 29.0494 33.8028C29.0494 30.6914 26.5271 28.169 23.4156 28.169C20.3041 28.169 17.7818 30.6914 17.7818 33.8028C17.7818 36.9142 20.3041 39.4366 23.4156 39.4366ZM40.317 39.4366C43.4285 39.4366 45.9508 36.9142 45.9508 33.8028C45.9508 30.6914 43.4285 28.169 40.317 28.169C37.2055 28.169 34.6832 30.6914 34.6832 33.8028C34.6832 36.9142 37.2055 39.4366 40.317 39.4366ZM62.8522 33.8028C62.8522 36.9142 60.3299 39.4366 57.2184 39.4366C54.1069 39.4366 51.5846 36.9142 51.5846 33.8028C51.5846 30.6914 54.1069 28.169 57.2184 28.169C60.3299 28.169 62.8522 30.6914 62.8522 33.8028Z" fill="white"/>
</svg>
