<svg width="127" height="97" viewBox="0 0 127 97" fill="none" xmlns="http://www.w3.org/2000/svg">
<path d="M85.4155 0H95.7643C108.21 0 118.3 10.0894 118.3 22.5352V50.5285C118.3 62.9744 108.21 73.0638 95.7643 73.0638H85.4155V0Z" fill="#EE3190"/>
<path d="M39.8838 0H29.535C17.0891 0 6.99977 10.0894 6.99977 22.5352V50.5285C6.99977 62.9744 17.0891 73.0638 29.535 73.0638H39.8838V0Z" fill="#00F2EA"/>
<path fill-rule="evenodd" clip-rule="evenodd" d="M37.354 0C26.1778 0 17.1177 9.02393 17.1177 20.1555V52.9082C17.1177 64.0398 26.1778 73.0638 37.354 73.0638H87.9448C99.121 73.0638 108.181 64.0398 108.181 52.9082V20.1555C108.181 9.02393 99.121 0 87.9448 0H37.354ZM60.1199 20.1555H67.7085V32.7527H80.3562V40.311H67.7085V52.9082H60.1199V40.311H47.4722V32.7527H60.1199V20.1555Z" fill="white"/>
<path d="M30.23 91.348C28.1227 91.348 26.3923 90.652 25.039 89.26C23.6857 87.868 23.009 86.1087 23.009 83.982C23.009 81.8553 23.6857 80.1057 25.039 78.733C26.3923 77.341 28.1227 76.645 30.23 76.645C32.5693 76.645 34.3577 77.4763 35.595 79.139L33.594 80.966C32.8207 79.8833 31.7477 79.342 30.375 79.342C29.1183 79.342 28.0937 79.777 27.301 80.647C26.5277 81.4977 26.141 82.6093 26.141 83.982C26.141 85.3547 26.5277 86.476 27.301 87.346C28.0937 88.216 29.1183 88.651 30.375 88.651C31.7283 88.651 32.8013 88.0903 33.594 86.969L35.595 88.854C34.3383 90.5167 32.55 91.348 30.23 91.348ZM50.4444 89.231C49.1297 90.6423 47.3897 91.348 45.2244 91.348C43.059 91.348 41.319 90.6423 40.0044 89.231C38.6897 87.8003 38.0324 86.0507 38.0324 83.982C38.0324 81.894 38.6897 80.154 40.0044 78.762C41.319 77.3507 43.059 76.645 45.2244 76.645C47.3897 76.645 49.1297 77.3507 50.4444 78.762C51.759 80.154 52.4164 81.894 52.4164 83.982C52.4164 86.0507 51.759 87.8003 50.4444 89.231ZM45.2244 88.651C46.481 88.651 47.467 88.2063 48.1824 87.317C48.8977 86.4083 49.2554 85.2967 49.2554 83.982C49.2554 82.6867 48.8977 81.5943 48.1824 80.705C47.467 79.7963 46.481 79.342 45.2244 79.342C43.987 79.342 43.001 79.7963 42.2664 80.705C41.551 81.5943 41.1934 82.6867 41.1934 83.982C41.1934 85.2967 41.551 86.4083 42.2664 87.317C43.001 88.2063 43.987 88.651 45.2244 88.651ZM76.3477 91H73.3027V81.865C73.3027 80.183 72.5294 79.342 70.9827 79.342C70.3447 79.342 69.726 79.5257 69.1267 79.893C68.5274 80.2603 68.0634 80.6953 67.7347 81.198V91H64.6897V81.865C64.6897 80.183 63.926 79.342 62.3987 79.342C61.7607 79.342 61.142 79.5257 60.5427 79.893C59.9627 80.2603 59.4987 80.6953 59.1507 81.198V91H56.1057V76.993H59.1507V78.878C59.5374 78.356 60.156 77.8533 61.0067 77.37C61.8574 76.8867 62.766 76.645 63.7327 76.645C64.738 76.645 65.5694 76.877 66.2267 77.341C66.884 77.7857 67.3287 78.4043 67.5607 79.197C67.986 78.5203 68.6337 77.9307 69.5037 77.428C70.393 76.906 71.3307 76.645 72.3167 76.645C73.612 76.645 74.6077 77.0027 75.3037 77.718C75.9997 78.4333 76.3477 79.487 76.3477 80.879V91ZM87.3673 91.348C85.2213 91.348 83.4619 90.6713 82.0893 89.318C80.7166 87.9647 80.0303 86.186 80.0303 83.982C80.0303 81.9327 80.6973 80.2023 82.0313 78.791C83.3846 77.3603 85.0859 76.645 87.1353 76.645C89.2039 76.645 90.8666 77.3603 92.1233 78.791C93.3799 80.2023 94.0083 82.0197 94.0083 84.243V84.997H83.2203C83.3363 86.099 83.7906 87.0173 84.5833 87.752C85.3759 88.4867 86.4006 88.854 87.6573 88.854C89.2813 88.854 90.6153 88.332 91.6593 87.288L93.0513 89.289C91.5819 90.6617 89.6873 91.348 87.3673 91.348ZM91.0793 82.822C91.0213 81.8553 90.6539 81.0047 89.9773 80.27C89.3199 79.516 88.3629 79.139 87.1063 79.139C85.9076 79.139 84.9699 79.516 84.2933 80.27C83.6166 81.0047 83.2493 81.8553 83.1913 82.822H91.0793ZM101.828 91.348C99.4305 91.348 98.2318 90.1397 98.2318 87.723V79.632H95.9118V76.993H98.2318V73.165H101.277V76.993H104.119V79.632H101.277V86.969C101.277 87.4717 101.393 87.8777 101.625 88.187C101.857 88.4963 102.185 88.651 102.611 88.651C103.191 88.651 103.635 88.477 103.945 88.129L104.67 90.449C103.993 91.0483 103.046 91.348 101.828 91.348Z" fill="black"/>
</svg>
