<svg width="46" height="57" viewBox="0 0 46 57" fill="none" xmlns="http://www.w3.org/2000/svg">
<path d="M20.0228 0.501714L19.52 0.501864L19.5229 1.00468L19.7143 33.3079L5.90116 20.0323L5.55479 19.6994L5.20832 20.0322L1.20832 23.8743L0.83291 24.2349L1.20832 24.5955L20.6528 43.2727L20.6527 43.2728L20.6616 43.2809L22.6616 45.1113L22.9994 45.4205L23.337 45.1111L25.337 43.278L25.3371 43.2781L25.3455 43.27L44.7899 24.5928L45.1653 24.2323L44.7899 23.8717L40.7899 20.0295L40.4434 19.6966L40.097 20.0297L26.2769 33.317V1V0.499851L25.7768 0.5L20.0228 0.501714ZM1.99913 50.1637H1.49913V50.6637V56V56.5H1.99913H43.9991H44.4991V56V50.6637V50.1637H43.9991H1.99913Z" fill="#434343" stroke="#434343"/>
</svg>
