<svg width="50" height="60" viewBox="0 0 50 60" fill="none" xmlns="http://www.w3.org/2000/svg">
<path d="M35.6309 0.630542C36.1575 0.231793 36.7953 0.0112709 37.4533 0.00042051C38.1113 -0.0104299 38.7558 0.188945 39.2951 0.570116C39.8343 0.951288 40.2407 1.49479 40.4563 2.12314C40.6719 2.75148 40.6858 3.43258 40.4958 4.06932C39.9496 5.91089 39.8882 7.86459 40.3177 9.73746C40.7457 11.5993 41.6509 13.3145 42.9423 14.7109C43.0284 14.8048 43.1087 14.904 43.1829 15.0077C45.0451 17.5876 55.556 32.6911 46.1231 48.9913L46.0293 49.1461C43.7379 52.6288 40.5995 55.458 36.9151 57.3625C33.2751 59.2461 29.2154 60.1478 25.1293 59.9803C20.7845 60.0571 16.494 58.9965 12.6749 56.9015C8.7894 54.766 5.51706 51.6503 3.17633 47.8577C-0.888696 40.9107 -0.523128 33.471 1.3391 27.5187C3.1607 21.6832 6.58832 16.7382 9.48476 14.5656C9.93984 14.2251 10.4779 14.0159 11.0415 13.9605C11.6051 13.9051 12.173 14.0055 12.6845 14.251C13.196 14.4965 13.6319 14.8778 13.9456 15.3543C14.2592 15.8308 14.4389 16.3844 14.4653 16.9561C14.6746 21.4748 15.5995 25.0115 16.9462 27.7903C17.6398 20.1896 20.4675 14.5404 23.8951 10.3469C27.479 5.95765 31.9064 3.08411 34.278 1.54313C34.7364 1.25421 35.1865 0.951989 35.6278 0.636857L35.6309 0.630542Z" fill="#434343"/>
</svg>
