<svg width="53" height="58" viewBox="0 0 53 58" fill="none" xmlns="http://www.w3.org/2000/svg">
<path d="M0.786314 4.50366L0.5 4.63901V4.9557V56.9551V57.4551H1H7.90309H8.40309V56.9551V37.8401C16.8456 35.6614 23.6365 38.1657 29.8673 40.4635C30.5262 40.7065 31.1788 40.9472 31.8265 41.1798C35.2361 42.4042 38.5374 43.412 41.8415 43.243C45.1762 43.0725 48.461 41.7085 51.8539 38.3086L52.003 38.1593L52 37.9483L51.5 2.94891L51.487 2.04444L50.728 2.53651C45.6398 5.83515 41.761 6.77281 38.3876 6.57865C35.1682 6.39334 32.3598 5.17951 29.2974 3.85589C29.126 3.78183 28.9539 3.70743 28.7808 3.63284C25.533 2.23307 22.0048 0.791441 17.5437 0.538936C13.0774 0.286135 7.71996 1.22601 0.786314 4.50366Z" fill="#434343" stroke="#434343"/>
</svg>
