<svg width="154" height="68" viewBox="0 0 154 68" fill="none" xmlns="http://www.w3.org/2000/svg">
<path d="M8.21494 42.0002H2.96094V17.3212H20.4249V21.9462H8.21494V27.1262H20.1659V31.7512H8.21494V42.0002ZM30.9806 42.4442C25.0976 42.4442 21.5456 38.1152 21.5456 33.0462C21.5456 27.9772 25.0976 23.6852 30.9806 23.6852C36.9006 23.6852 40.4526 27.9772 40.4526 33.0462C40.4526 38.1152 36.9006 42.4442 30.9806 42.4442ZM30.9806 38.2632C33.9406 38.2632 35.5686 35.8582 35.5686 33.0462C35.5686 30.2712 33.9406 27.8662 30.9806 27.8662C28.0576 27.8662 26.4296 30.2712 26.4296 33.0462C26.4296 35.8582 28.0576 38.2632 30.9806 38.2632ZM47.3789 42.0002H42.6799V17.3212H47.3789V42.0002ZM55.4423 42.0002H50.7433V17.3212H55.4423V42.0002ZM67.0947 42.4442C61.2117 42.4442 57.6597 38.1152 57.6597 33.0462C57.6597 27.9772 61.2117 23.6852 67.0947 23.6852C73.0147 23.6852 76.5667 27.9772 76.5667 33.0462C76.5667 38.1152 73.0147 42.4442 67.0947 42.4442ZM67.0947 38.2632C70.0547 38.2632 71.6827 35.8582 71.6827 33.0462C71.6827 30.2712 70.0547 27.8662 67.0947 27.8662C64.1717 27.8662 62.5437 30.2712 62.5437 33.0462C62.5437 35.8582 64.1717 38.2632 67.0947 38.2632ZM99.5139 42.0002H94.4819L90.7079 29.8272L86.9339 42.0002H81.9019L76.4629 24.1292H81.3469L84.6769 36.1542L88.5989 24.1292H92.7799L96.7019 36.1542L100.032 24.1292H104.953L99.5139 42.0002ZM108.302 22.2052C106.785 22.2052 105.527 20.9472 105.527 19.3932C105.527 17.8392 106.785 16.6182 108.302 16.6182C109.856 16.6182 111.114 17.8392 111.114 19.3932C111.114 20.9472 109.856 22.2052 108.302 22.2052ZM110.67 42.0002H105.971V24.1292H110.67V42.0002ZM130.833 42.0002H126.097V31.1962C126.097 28.7172 124.802 27.8662 122.804 27.8662C120.954 27.8662 119.548 28.9022 118.734 29.9382V42.0002H114.035V24.1292H118.734V26.4232C119.881 25.0912 122.101 23.6852 124.987 23.6852C128.946 23.6852 130.833 25.9052 130.833 29.3832V42.0002ZM141.493 49.2522C138.459 49.2522 136.054 48.5492 133.797 46.5882L135.906 43.2212C137.349 44.7752 139.273 45.4042 141.493 45.4042C143.75 45.4042 146.451 44.4422 146.451 40.8162V39.0772C145.045 40.8532 143.121 41.8522 140.901 41.8522C136.461 41.8522 133.02 38.7442 133.02 32.7872C133.02 26.9412 136.387 23.6852 140.901 23.6852C143.047 23.6852 145.008 24.5732 146.451 26.4232V24.1292H151.15V40.8162C151.15 47.5872 145.896 49.2522 141.493 49.2522ZM142.418 37.7082C143.935 37.7082 145.637 36.8202 146.451 35.6732V29.8642C145.637 28.7172 143.935 27.8662 142.418 27.8662C139.717 27.8662 137.867 29.7162 137.867 32.7872C137.867 35.8582 139.717 37.7082 142.418 37.7082Z" fill="#E7E7E7" fill-opacity="0.7"/>
</svg>
