<svg width="154" height="68" viewBox="0 0 154 68" fill="none" xmlns="http://www.w3.org/2000/svg">
<path d="M8.21584 42H2.96184V17.321H20.4258V21.946H8.21584V27.126H20.1668V31.751H8.21584V42ZM30.9815 42.444C25.0985 42.444 21.5465 38.115 21.5465 33.046C21.5465 27.977 25.0985 23.685 30.9815 23.685C36.9015 23.685 40.4535 27.977 40.4535 33.046C40.4535 38.115 36.9015 42.444 30.9815 42.444ZM30.9815 38.263C33.9415 38.263 35.5695 35.858 35.5695 33.046C35.5695 30.271 33.9415 27.866 30.9815 27.866C28.0585 27.866 26.4305 30.271 26.4305 33.046C26.4305 35.858 28.0585 38.263 30.9815 38.263ZM47.3798 42H42.6808V17.321H47.3798V42ZM55.4432 42H50.7442V17.321H55.4432V42ZM67.0956 42.444C61.2126 42.444 57.6606 38.115 57.6606 33.046C57.6606 27.977 61.2126 23.685 67.0956 23.685C73.0156 23.685 76.5676 27.977 76.5676 33.046C76.5676 38.115 73.0156 42.444 67.0956 42.444ZM67.0956 38.263C70.0556 38.263 71.6836 35.858 71.6836 33.046C71.6836 30.271 70.0556 27.866 67.0956 27.866C64.1726 27.866 62.5446 30.271 62.5446 33.046C62.5446 35.858 64.1726 38.263 67.0956 38.263ZM99.5148 42H94.4828L90.7088 29.827L86.9348 42H81.9028L76.4638 24.129H81.3478L84.6778 36.154L88.5998 24.129H92.7808L96.7028 36.154L100.033 24.129H104.954L99.5148 42ZM108.303 22.205C106.786 22.205 105.528 20.947 105.528 19.393C105.528 17.839 106.786 16.618 108.303 16.618C109.857 16.618 111.115 17.839 111.115 19.393C111.115 20.947 109.857 22.205 108.303 22.205ZM110.671 42H105.972V24.129H110.671V42ZM130.834 42H126.098V31.196C126.098 28.717 124.803 27.866 122.805 27.866C120.955 27.866 119.549 28.902 118.735 29.938V42H114.036V24.129H118.735V26.423C119.882 25.091 122.102 23.685 124.988 23.685C128.947 23.685 130.834 25.905 130.834 29.383V42ZM141.494 49.252C138.46 49.252 136.055 48.549 133.798 46.588L135.907 43.221C137.35 44.775 139.274 45.404 141.494 45.404C143.751 45.404 146.452 44.442 146.452 40.816V39.077C145.046 40.853 143.122 41.852 140.902 41.852C136.462 41.852 133.021 38.744 133.021 32.787C133.021 26.941 136.388 23.685 140.902 23.685C143.048 23.685 145.009 24.573 146.452 26.423V24.129H151.151V40.816C151.151 47.587 145.897 49.252 141.494 49.252ZM142.419 37.708C143.936 37.708 145.638 36.82 146.452 35.673V29.864C145.638 28.717 143.936 27.866 142.419 27.866C139.718 27.866 137.868 29.716 137.868 32.787C137.868 35.858 139.718 37.708 142.419 37.708Z" fill="white"/>
</svg>
