<svg width="154" height="68" viewBox="0 0 154 68" fill="none" xmlns="http://www.w3.org/2000/svg">
<path d="M26.0704 42.0002H20.8164V17.3212H38.2804V21.9462H26.0704V27.1262H38.0214V31.7512H26.0704V42.0002ZM45.2471 42.0002H40.5481V24.1292H45.2471V26.5342C46.5421 24.9802 48.7251 23.6852 50.9451 23.6852V28.2732C50.6121 28.1992 50.2051 28.1622 49.6501 28.1622C48.0961 28.1622 46.0241 29.0502 45.2471 30.1972V42.0002ZM54.9171 22.2052C53.4001 22.2052 52.1421 20.9472 52.1421 19.3932C52.1421 17.8392 53.4001 16.6182 54.9171 16.6182C56.4711 16.6182 57.7291 17.8392 57.7291 19.3932C57.7291 20.9472 56.4711 22.2052 54.9171 22.2052ZM57.2851 42.0002H52.5861V24.1292H57.2851V42.0002ZM69.0485 42.4442C63.6095 42.4442 59.5025 38.7812 59.5025 33.0462C59.5025 27.8662 63.3505 23.6852 68.7525 23.6852C74.1175 23.6852 77.7065 27.6812 77.7065 33.4902V34.6002H64.4235C64.7565 36.7832 66.5325 38.5962 69.5665 38.5962C71.0835 38.5962 73.1555 37.9672 74.3025 36.8572L76.4115 39.9652C74.6355 41.5932 71.8235 42.4442 69.0485 42.4442ZM73.1925 31.3442C73.0445 29.6422 71.8605 27.5332 68.7525 27.5332C65.8295 27.5332 64.5715 29.5682 64.3865 31.3442H73.1925ZM96.6037 42.0002H91.8677V31.1962C91.8677 28.7172 90.5727 27.8662 88.5747 27.8662C86.7247 27.8662 85.3187 28.9022 84.5047 29.9382V42.0002H79.8057V24.1292H84.5047V26.4232C85.6517 25.0912 87.8717 23.6852 90.7577 23.6852C94.7167 23.6852 96.6037 25.9052 96.6037 29.3832V42.0002ZM116.957 42.0002H112.221V39.7062C110.815 41.4822 108.891 42.4442 106.708 42.4442C102.231 42.4442 98.7905 39.0402 98.7905 33.0462C98.7905 27.2372 102.157 23.6852 106.708 23.6852C108.817 23.6852 110.815 24.5732 112.221 26.4232V17.3212H116.957V42.0002ZM108.188 38.2632C109.742 38.2632 111.444 37.4122 112.221 36.2282V29.9012C111.444 28.7172 109.742 27.8662 108.188 27.8662C105.487 27.8662 103.637 29.9752 103.637 33.0462C103.637 36.1542 105.487 38.2632 108.188 38.2632ZM126.76 42.4442C123.652 42.4442 120.655 41.4082 118.768 39.6692L120.803 36.2652C122.135 37.5232 124.762 38.7442 126.982 38.7442C129.017 38.7442 129.979 37.9672 129.979 36.8572C129.979 33.9342 119.397 36.3392 119.397 29.3092C119.397 26.3122 121.987 23.6852 126.723 23.6852C129.72 23.6852 132.125 24.7212 133.901 26.1272L132.014 29.4572C130.941 28.3472 128.906 27.3852 126.723 27.3852C125.021 27.3852 123.911 28.1252 123.911 29.1242C123.911 31.7512 134.53 29.5312 134.53 36.7462C134.53 40.0392 131.718 42.4442 126.76 42.4442Z" fill="#E7E7E7" fill-opacity="0.7"/>
</svg>
