<svg width="154" height="68" viewBox="0 0 154 68" fill="none" xmlns="http://www.w3.org/2000/svg">
<path d="M26.0712 42H20.8172V17.321H38.2812V21.946H26.0712V27.126H38.0222V31.751H26.0712V42ZM45.2479 42H40.5489V24.129H45.2479V26.534C46.5429 24.98 48.7259 23.685 50.9459 23.685V28.273C50.6129 28.199 50.2059 28.162 49.6509 28.162C48.0969 28.162 46.0249 29.05 45.2479 30.197V42ZM54.9179 22.205C53.4009 22.205 52.1429 20.947 52.1429 19.393C52.1429 17.839 53.4009 16.618 54.9179 16.618C56.4719 16.618 57.7299 17.839 57.7299 19.393C57.7299 20.947 56.4719 22.205 54.9179 22.205ZM57.2859 42H52.5869V24.129H57.2859V42ZM69.0493 42.444C63.6103 42.444 59.5033 38.781 59.5033 33.046C59.5033 27.866 63.3513 23.685 68.7533 23.685C74.1183 23.685 77.7073 27.681 77.7073 33.49V34.6H64.4243C64.7573 36.783 66.5333 38.596 69.5673 38.596C71.0843 38.596 73.1563 37.967 74.3033 36.857L76.4123 39.965C74.6363 41.593 71.8243 42.444 69.0493 42.444ZM73.1933 31.344C73.0453 29.642 71.8613 27.533 68.7533 27.533C65.8303 27.533 64.5723 29.568 64.3873 31.344H73.1933ZM96.6045 42H91.8685V31.196C91.8685 28.717 90.5735 27.866 88.5755 27.866C86.7255 27.866 85.3195 28.902 84.5055 29.938V42H79.8065V24.129H84.5055V26.423C85.6525 25.091 87.8725 23.685 90.7585 23.685C94.7175 23.685 96.6045 25.905 96.6045 29.383V42ZM116.958 42H112.222V39.706C110.816 41.482 108.892 42.444 106.709 42.444C102.232 42.444 98.7913 39.04 98.7913 33.046C98.7913 27.237 102.158 23.685 106.709 23.685C108.818 23.685 110.816 24.573 112.222 26.423V17.321H116.958V42ZM108.189 38.263C109.743 38.263 111.445 37.412 112.222 36.228V29.901C111.445 28.717 109.743 27.866 108.189 27.866C105.488 27.866 103.638 29.975 103.638 33.046C103.638 36.154 105.488 38.263 108.189 38.263ZM126.761 42.444C123.653 42.444 120.656 41.408 118.769 39.669L120.804 36.265C122.136 37.523 124.763 38.744 126.983 38.744C129.018 38.744 129.98 37.967 129.98 36.857C129.98 33.934 119.398 36.339 119.398 29.309C119.398 26.312 121.988 23.685 126.724 23.685C129.721 23.685 132.126 24.721 133.902 26.127L132.015 29.457C130.942 28.347 128.907 27.385 126.724 27.385C125.022 27.385 123.912 28.125 123.912 29.124C123.912 31.751 134.531 29.531 134.531 36.746C134.531 40.039 131.719 42.444 126.761 42.444Z" fill="white"/>
</svg>
