<svg width="154" height="68" viewBox="0 0 154 68" fill="none" xmlns="http://www.w3.org/2000/svg">
<path d="M24.9692 42H19.7152V17.321H37.1792V21.946H24.9692V27.126H36.9202V31.751H24.9692V42ZM47.7349 42.444C41.8519 42.444 38.2999 38.115 38.2999 33.046C38.2999 27.977 41.8519 23.685 47.7349 23.685C53.6549 23.685 57.2069 27.977 57.2069 33.046C57.2069 38.115 53.6549 42.444 47.7349 42.444ZM47.7349 38.263C50.6949 38.263 52.3229 35.858 52.3229 33.046C52.3229 30.271 50.6949 27.866 47.7349 27.866C44.8119 27.866 43.1839 30.271 43.1839 33.046C43.1839 35.858 44.8119 38.263 47.7349 38.263ZM64.1331 42H59.4341V24.129H64.1331V26.534C65.4281 24.98 67.6111 23.685 69.8311 23.685V28.273C69.4981 28.199 69.0911 28.162 68.5361 28.162C66.9821 28.162 64.9101 29.05 64.1331 30.197V42ZM91.927 42H86.673V31.899L77.201 17.321H83.195L89.3 27.2L95.405 17.321H101.362L91.927 31.899V42ZM105.932 42.444C100.049 42.444 96.4968 38.115 96.4968 33.046C96.4968 27.977 100.049 23.685 105.932 23.685C111.852 23.685 115.404 27.977 115.404 33.046C115.404 38.115 111.852 42.444 105.932 42.444ZM105.932 38.263C108.892 38.263 110.52 35.858 110.52 33.046C110.52 30.271 108.892 27.866 105.932 27.866C103.009 27.866 101.381 30.271 101.381 33.046C101.381 35.858 103.009 38.263 105.932 38.263ZM134.392 42H129.693V39.743C128.472 41.075 126.326 42.444 123.403 42.444C119.481 42.444 117.631 40.298 117.631 36.82V24.129H122.33V34.97C122.33 37.449 123.625 38.263 125.623 38.263C127.436 38.263 128.879 37.264 129.693 36.228V24.129H134.392V42Z" fill="white"/>
<rect x="53.1855" y="64.4828" width="48.4227" height="3.51724" rx="1.75862" fill="white"/>
</svg>
