<svg width="127" height="96" viewBox="0 0 127 96" fill="none" xmlns="http://www.w3.org/2000/svg">
<path d="M64.7991 0.655071C63.7638 -0.218358 62.2362 -0.218357 61.2009 0.655072L29.9709 27.0026C28.0222 28.6467 29.2035 31.7896 31.77 31.7896H36.2764L40.1139 54.4526C40.5583 57.0767 42.8649 59 45.5677 59H60.2355V38.5922C60.2355 37.8408 60.8543 37.2317 61.6177 37.2317H64.3823C65.1457 37.2317 65.7645 37.8408 65.7645 38.5922V59H80.4323C83.1351 59 85.4417 57.0767 85.8861 54.4526L89.7236 31.7896H94.23C96.7965 31.7896 97.9778 28.6467 96.0291 27.0026L64.7991 0.655071Z" fill="white"/>
<path d="M43.6399 90H40.2271V81.4826H30.1054V90H26.6927V70.5443H30.1054V78.4782H40.2271V70.5443H43.6399V90ZM59.0311 88.2207C57.7088 89.6402 55.9586 90.35 53.7807 90.35C51.6027 90.35 49.8526 89.6402 48.5302 88.2207C47.2079 86.7817 46.5467 85.0218 46.5467 82.9411C46.5467 80.8409 47.2079 79.0908 48.5302 77.6907C49.8526 76.2711 51.6027 75.5613 53.7807 75.5613C55.9586 75.5613 57.7088 76.2711 59.0311 77.6907C60.3534 79.0908 61.0146 80.8409 61.0146 82.9411C61.0146 85.0218 60.3534 86.7817 59.0311 88.2207ZM53.7807 87.6373C55.0446 87.6373 56.0364 87.1901 56.7559 86.2955C57.4754 85.3816 57.8352 84.2634 57.8352 82.9411C57.8352 81.6382 57.4754 80.5395 56.7559 79.645C56.0364 78.731 55.0446 78.2741 53.7807 78.2741C52.5361 78.2741 51.5444 78.731 50.8054 79.645C50.0859 80.5395 49.7262 81.6382 49.7262 82.9411C49.7262 84.2634 50.0859 85.3816 50.8054 86.2955C51.5444 87.1901 52.5361 87.6373 53.7807 87.6373ZM84.2103 90H81.1476V80.8118C81.1476 79.12 80.3697 78.2741 78.8141 78.2741C78.1723 78.2741 77.5501 78.4588 76.9472 78.8283C76.3444 79.1977 75.8777 79.6353 75.5471 80.1409V90H72.4844V80.8118C72.4844 79.12 71.7163 78.2741 70.18 78.2741C69.5383 78.2741 68.916 78.4588 68.3132 78.8283C67.7298 79.1977 67.2631 79.6353 66.9131 80.1409V90H63.8504V75.9114H66.9131V77.8074C67.302 77.2823 67.9243 76.7767 68.7799 76.2906C69.6355 75.8044 70.5495 75.5613 71.5218 75.5613C72.533 75.5613 73.3692 75.7947 74.0303 76.2614C74.6915 76.7087 75.1388 77.3309 75.3721 78.1282C75.7999 77.4476 76.4514 76.8545 77.3264 76.3489C78.221 75.8239 79.1641 75.5613 80.1558 75.5613C81.4587 75.5613 82.4602 75.9211 83.1602 76.6406C83.8603 77.3601 84.2103 78.4199 84.2103 79.82V90ZM94.419 90.35C92.2605 90.35 90.4909 89.6694 89.1103 88.3082C87.7296 86.947 87.0393 85.1579 87.0393 82.9411C87.0393 80.8798 87.7102 79.1394 89.0519 77.7198C90.4131 76.2808 92.1244 75.5613 94.1857 75.5613C96.2664 75.5613 97.9388 76.2808 99.2027 77.7198C100.467 79.1394 101.099 80.9673 101.099 83.2036V83.962H90.2479C90.3645 85.0704 90.8215 85.9941 91.6188 86.7331C92.4161 87.472 93.4467 87.8415 94.7107 87.8415C96.3442 87.8415 97.686 87.3165 98.736 86.2664L100.136 88.279C98.6583 89.6597 96.7525 90.35 94.419 90.35ZM98.1527 81.7743C98.0943 80.802 97.7248 79.9464 97.0442 79.2075C96.3831 78.4491 95.4205 78.0699 94.1565 78.0699C92.9509 78.0699 92.0077 78.4491 91.3271 79.2075C90.6465 79.9464 90.277 80.802 90.2187 81.7743H98.1527Z" fill="white"/>
</svg>
