<svg width="127" height="97" viewBox="0 0 127 97" fill="none" xmlns="http://www.w3.org/2000/svg">
<path d="M32.2294 91H28.8364V71.657H32.2294V91ZM49.3623 91H46.3173V82.242C46.3173 81.198 46.066 80.4537 45.5633 80.009C45.08 79.5643 44.384 79.342 43.4753 79.342C42.76 79.342 42.0833 79.5257 41.4453 79.893C40.8073 80.241 40.2853 80.676 39.8793 81.198V91H36.8343V76.993H39.8793V78.878C40.4013 78.2593 41.0973 77.7373 41.9673 77.312C42.8566 76.8673 43.8136 76.645 44.8383 76.645C46.327 76.645 47.4483 77.0317 48.2023 77.805C48.9756 78.5783 49.3623 79.69 49.3623 81.14V91ZM56.9417 86.795C57.2897 87.3363 57.8021 87.781 58.4787 88.129C59.1554 88.477 59.8514 88.651 60.5667 88.651C61.7654 88.651 62.7224 88.216 63.4377 87.346C64.1531 86.476 64.5107 85.3547 64.5107 83.982C64.5107 82.6093 64.1531 81.4977 63.4377 80.647C62.7224 79.777 61.7654 79.342 60.5667 79.342C59.8514 79.342 59.1554 79.5257 58.4787 79.893C57.8021 80.241 57.2897 80.6857 56.9417 81.227V86.795ZM56.9417 91H53.8967V71.657H56.9417V78.936C58.0824 77.4087 59.5807 76.645 61.4367 76.645C63.2734 76.645 64.7717 77.312 65.9317 78.646C67.0917 79.98 67.6717 81.7587 67.6717 83.982C67.6717 86.2633 67.0917 88.0613 65.9317 89.376C64.7717 90.6907 63.2734 91.348 61.4367 91.348C59.6001 91.348 58.1017 90.594 56.9417 89.086V91ZM82.8983 89.231C81.5836 90.6423 79.8436 91.348 77.6783 91.348C75.513 91.348 73.773 90.6423 72.4583 89.231C71.1436 87.8003 70.4863 86.0507 70.4863 83.982C70.4863 81.894 71.1436 80.154 72.4583 78.762C73.773 77.3507 75.513 76.645 77.6783 76.645C79.8436 76.645 81.5836 77.3507 82.8983 78.762C84.213 80.154 84.8703 81.894 84.8703 83.982C84.8703 86.0507 84.213 87.8003 82.8983 89.231ZM77.6783 88.651C78.935 88.651 79.921 88.2063 80.6363 87.317C81.3516 86.4083 81.7093 85.2967 81.7093 83.982C81.7093 82.6867 81.3516 81.5943 80.6363 80.705C79.921 79.7963 78.935 79.342 77.6783 79.342C76.441 79.342 75.455 79.7963 74.7203 80.705C74.005 81.5943 73.6473 82.6867 73.6473 83.982C73.6473 85.2967 74.005 86.4083 74.7203 87.317C75.455 88.2063 76.441 88.651 77.6783 88.651ZM99.8361 91H96.4141L92.7891 85.838L89.1351 91H85.7131L90.8751 83.808L86.0321 76.993H89.4541L92.7601 81.72L96.0951 76.993H99.5171L94.6741 83.808L99.8361 91Z" fill="#BFBFBF"/>
<path fill-rule="evenodd" clip-rule="evenodd" d="M71.2287 43.2781H68.3016L66.6189 45.6732L62.6374 51.34L58.656 45.6732L56.9733 43.2781H54.0462H39.6338V5.6338L85.6411 5.6338L85.6411 43.2781L71.2287 43.2781ZM85.6411 48.9119H71.2287L64.9423 57.8594C63.8205 59.456 61.4544 59.456 60.3326 57.8594L54.0462 48.9119H39.6338C36.5223 48.9119 34 46.3896 34 43.2781V5.6338C34 2.52233 36.5223 0 39.6338 0H85.6411C88.7526 0 91.2749 2.52234 91.2749 5.6338V43.2781C91.2749 46.3896 88.7526 48.9119 85.6411 48.9119ZM52.5911 21.399C51.8132 21.399 51.1827 22.0296 51.1827 22.8075V26.1046C51.1827 26.8824 51.8132 27.513 52.5911 27.513H72.6842C73.462 27.513 74.0926 26.8824 74.0926 26.1046V22.8075C74.0926 22.0296 73.462 21.399 72.6842 21.399H52.5911Z" fill="#BFBFBF"/>
</svg>
