<svg width="71" height="68" viewBox="0 0 71 68" fill="none" xmlns="http://www.w3.org/2000/svg">
<path d="M21.6667 68C21.6667 68 16 68 16 62.3333C16 59.6667 16.5 38 44 38C71.5 38 71 59.6667 71 62.3333C71 68 65.3333 68 65.3333 68H21.6667ZM44 34C48.5087 34 52.8327 32.2089 56.0208 29.0208C59.2089 25.8327 61 21.5087 61 17C61 12.4913 59.2089 8.1673 56.0208 4.97919C52.8327 1.79107 48.5087 0 44 0C39.4913 0 35.1673 1.79107 31.9792 4.97919C28.7911 8.1673 27 12.4913 27 17C27 21.5087 28.7911 25.8327 31.9792 29.0208C35.1673 32.2089 39.4913 34 44 34Z" fill="white"/>
<path d="M25 35.2143H25.5V34.7143V31.2857V30.7857H25H15.2143V21V20.5H14.7143H11.2857H10.7857V21V30.7857H1H0.5V31.2857V34.7143V35.2143H1H10.7857V45V45.5H11.2857H14.7143H15.2143V45V35.2143H25Z" fill="white" stroke="white"/>
</svg>
