<svg width="76" height="69" viewBox="0 0 76 69" fill="none" xmlns="http://www.w3.org/2000/svg">
<path d="M76 21.2091C76 43.6421 53.0643 60.9571 42.8303 67.5666C39.8677 69.4799 36.1335 69.4775 33.1727 67.5613C22.9403 60.9389 0 43.5958 0 21.2091C0 16.7577 1.39412 12.4191 3.98489 8.80793C6.57565 5.19675 10.2317 2.49605 14.4352 1.08838C18.6387 -0.319281 23.1765 -0.362542 27.4058 0.964728C31.6351 2.292 35.3415 4.92251 38 8.48365C40.6585 4.92251 44.3649 2.292 48.5942 0.964728C52.8235 -0.362542 57.3613 -0.319281 61.5648 1.08838C65.7683 2.49605 69.4243 5.19675 72.0151 8.80793C74.6059 12.4191 76 16.7577 76 21.2091Z" fill="white"/>
</svg>
