<svg width="42" height="42" viewBox="0 0 42 42" fill="none" xmlns="http://www.w3.org/2000/svg">
<path d="M24.3926 29.3908C24.3103 29.3094 24.1993 29.2638 24.0836 29.2638C23.9679 29.2638 23.8568 29.3094 23.7746 29.3908L17.4201 35.7453C14.478 38.6874 9.51258 38.9991 6.26425 35.7453C3.01045 32.4915 3.32216 27.5315 6.26425 24.5894L12.6187 18.235C12.7883 18.0654 12.7883 17.7865 12.6187 17.617L10.4422 15.4405C10.36 15.3591 10.249 15.3134 10.1333 15.3134C10.0176 15.3134 9.90651 15.3591 9.82429 15.4405L3.46981 21.795C-1.1566 26.4214 -1.1566 33.9079 3.46981 38.5288C8.09622 43.1498 15.5827 43.1552 20.2036 38.5288L26.5581 32.1743C26.7276 32.0048 26.7276 31.7259 26.5581 31.5564L24.3926 29.3908ZM38.5343 3.46981C33.9079 -1.1566 26.4214 -1.1566 21.8005 3.46981L15.4405 9.82429C15.3591 9.90651 15.3134 10.0176 15.3134 10.1333C15.3134 10.249 15.3591 10.36 15.4405 10.4422L17.6115 12.6133C17.7811 12.7828 18.06 12.7828 18.2295 12.6133L24.584 6.25878C27.5261 3.31669 32.4915 3.00498 35.7399 6.25878C38.9937 9.51258 38.6819 14.4726 35.7399 17.4147L29.3854 23.7691C29.304 23.8514 29.2583 23.9624 29.2583 24.0781C29.2583 24.1938 29.304 24.3049 29.3854 24.3871L31.5619 26.5636C31.7314 26.7331 32.0103 26.7331 32.1798 26.5636L38.5343 20.2091C43.1552 15.5827 43.1552 8.09622 38.5343 3.46981ZM26.3667 13.3625C26.2845 13.281 26.1735 13.2354 26.0577 13.2354C25.942 13.2354 25.831 13.281 25.7488 13.3625L13.3625 25.7433C13.281 25.8255 13.2354 25.9366 13.2354 26.0523C13.2354 26.168 13.281 26.279 13.3625 26.3613L15.528 28.5268C15.6975 28.6963 15.9764 28.6963 16.146 28.5268L28.5268 16.146C28.6963 15.9764 28.6963 15.6975 28.5268 15.528L26.3667 13.3625Z" fill="white"/>
</svg>
