<svg width="51" height="55" viewBox="0 0 51 55" fill="none" xmlns="http://www.w3.org/2000/svg">
<path fill-rule="evenodd" clip-rule="evenodd" d="M14.6131 0.671214C15.5081 -0.223738 16.9591 -0.223738 17.854 0.671214L25.4003 8.21743L32.9465 0.671214C33.8414 -0.223738 35.2924 -0.223738 36.1874 0.671214C37.0823 1.56617 37.0823 3.01717 36.1874 3.91212L30.9328 9.16667H43.4924C45.0762 9.16667 46.4175 9.54798 47.5077 10.2384C48.5892 10.9233 49.2926 11.8291 49.7418 12.6827C50.1851 13.5249 50.3956 14.3414 50.4987 14.9295C50.5512 15.2287 50.5785 15.4835 50.5927 15.6729C50.5999 15.768 50.6038 15.8478 50.606 15.9098L50.6086 16.0417C50.6086 17.3073 49.5826 18.3333 48.3169 18.3333C47.0603 18.3333 46.0399 17.3219 46.0254 16.0687C46.0252 16.0617 46.0244 16.0438 46.0223 16.0166C46.0177 15.9553 46.0073 15.852 45.9844 15.7215C45.9368 15.4503 45.8457 15.121 45.6859 14.8173C45.5321 14.525 45.3309 14.285 45.0554 14.1105C44.7887 13.9416 44.3208 13.75 43.4924 13.75H7.30815C6.47968 13.75 6.01182 13.9416 5.74511 14.1105C5.46963 14.285 5.26844 14.525 5.11459 14.8173C4.9548 15.121 4.86375 15.4503 4.81616 15.7215C4.79327 15.852 4.78283 15.9553 4.77822 16.0166C4.7762 16.0435 4.77538 16.0613 4.7751 16.0685C4.76074 17.3218 3.7403 18.3333 2.48358 18.3333C1.21793 18.3333 0.191917 17.3073 0.191917 16.0417L0.194504 15.9098C0.19668 15.8478 0.200639 15.768 0.20779 15.6729C0.222033 15.4835 0.24928 15.2287 0.301774 14.9295C0.404954 14.3414 0.615443 13.5249 1.05872 12.6827C1.50794 11.8291 2.21136 10.9233 3.29279 10.2384C4.38299 9.54798 5.72433 9.16667 7.30815 9.16667H19.8677L14.6131 3.91212C13.7182 3.01717 13.7182 1.56617 14.6131 0.671214ZM3.62942 22.9167C4.26224 22.9167 4.77525 23.4297 4.77525 24.0625V36.6667H10.5044C11.1372 36.6667 11.6503 37.1797 11.6503 37.8125V40.1042C11.6503 40.737 11.1372 41.25 10.5044 41.25H1.33775C0.704925 41.25 0.191917 40.737 0.191917 40.1042V24.0625C0.191917 23.4297 0.704925 22.9167 1.33775 22.9167H3.62942ZM15.0878 22.9167C14.4549 22.9167 13.9419 23.4297 13.9419 24.0625V40.1042C13.9419 40.737 14.4549 41.25 15.0878 41.25H17.3794C18.0123 41.25 18.5253 40.737 18.5253 40.1042V24.0625C18.5253 23.4297 18.0123 22.9167 17.3794 22.9167H15.0878ZM40.2961 22.9167C39.6633 22.9167 39.1503 23.4297 39.1503 24.0625V40.1042C39.1503 40.737 39.6633 41.25 40.2961 41.25H48.3169C49.5826 41.25 50.6086 40.224 50.6086 38.9583C50.6086 37.6927 49.5826 36.6667 48.3169 36.6667H43.7336V34.375H48.3169C49.5826 34.375 50.6086 33.349 50.6086 32.0833C50.6086 30.8177 49.5826 29.7917 48.3169 29.7917H43.7336V27.5H48.3169C49.5826 27.5 50.6086 26.474 50.6086 25.2083C50.6086 23.9427 49.5826 22.9167 48.3169 22.9167H40.2961ZM25.6172 23.7846C25.4897 23.2745 25.0314 22.9167 24.5056 22.9167H22.2845C21.539 22.9167 20.9921 23.6172 21.1729 24.3404L24.9663 39.5142C25.2213 40.5343 26.138 41.25 27.1895 41.25H30.486C31.5376 41.25 32.4542 40.5343 32.7092 39.5142L36.5027 24.3404C36.6835 23.6172 36.1365 22.9167 35.391 22.9167H33.1699C32.6441 22.9167 32.1858 23.2745 32.0583 23.7846L28.8378 36.6667L25.6172 23.7846ZM3.10087 53.9282C4.19107 54.6187 5.53242 55 7.11623 55L43.3005 55C44.8843 55 46.2256 54.6187 47.3158 53.9282C48.3973 53.2433 49.1007 52.3375 49.5499 51.484C49.9932 50.6418 50.2037 49.8253 50.3068 49.2372C50.3593 48.9379 50.3866 48.6832 50.4008 48.4938C50.408 48.3987 50.4119 48.3189 50.4141 48.2569L50.4167 48.125C50.4167 46.8594 49.3907 45.8333 48.125 45.8333C46.8683 45.8333 45.8479 46.8449 45.8335 48.0982C45.8332 48.1054 45.8324 48.1231 45.8304 48.1501C45.8258 48.2114 45.8153 48.3147 45.7924 48.4452C45.7449 48.7164 45.6538 49.0457 45.494 49.3493C45.3402 49.6417 45.139 49.8817 44.8635 50.0562C44.5968 50.2251 44.1289 50.4167 43.3005 50.4167L7.11623 50.4167C6.28777 50.4167 5.8199 50.2251 5.55319 50.0562C5.27771 49.8817 5.07652 49.6417 4.92268 49.3493C4.76288 49.0457 4.67183 48.7164 4.62424 48.4452C4.60135 48.3147 4.59091 48.2113 4.58631 48.1501C4.58426 48.1228 4.58345 48.105 4.58318 48.098C4.5687 46.8448 3.54831 45.8333 2.29167 45.8333C1.02601 45.8333 1.10638e-07 46.8594 0 48.125L0.00259017 48.2568C0.00476073 48.3189 0.00872037 48.3987 0.0158729 48.4938C0.030117 48.6832 0.0573615 48.9379 0.109859 49.2372C0.213035 49.8253 0.423527 50.6418 0.866798 51.484C1.31602 52.3375 2.01944 53.2433 3.10087 53.9282Z" fill="white"/>
</svg>
