<svg width="59" height="59" viewBox="0 0 59 59" fill="none" xmlns="http://www.w3.org/2000/svg">
<path d="M57.3537 52.5434L57.707 52.1898L57.3536 51.8364L43.5625 38.0453C46.9627 33.286 48.4895 27.4337 47.8399 21.6106C47.1743 15.645 44.2739 10.1529 39.7224 6.23959C35.1709 2.32622 29.306 0.282049 23.3081 0.518434C17.3102 0.754818 11.6244 3.25422 7.39499 7.51364C3.16556 11.7731 0.706405 17.4764 0.512414 23.4758C0.318423 29.4752 2.40399 35.3255 6.34942 39.8493C10.2949 44.373 15.8073 47.2345 21.7774 47.8579C27.6031 48.4662 33.4427 46.8992 38.1771 43.4676L51.9513 57.2419L52.305 57.5956L52.6586 57.2418L57.3537 52.5434ZM35.6265 12.8591C38.6462 15.8788 40.3427 19.9745 40.3427 24.2451C40.3427 28.5156 38.6462 32.6113 35.6265 35.6311C32.6067 38.6508 28.5111 40.3473 24.2405 40.3473C19.9699 40.3473 15.8742 38.6508 12.8545 35.6311C9.83473 32.6113 8.13825 28.5156 8.13825 24.2451C8.13825 19.9745 9.83473 15.8788 12.8545 12.8591C15.8742 9.83932 19.9699 8.14284 24.2405 8.14284C28.5111 8.14284 32.6067 9.83932 35.6265 12.8591Z" fill="#434343" stroke="#434343"/>
</svg>
