<svg width="127" height="96" viewBox="0 0 127 96" fill="none" xmlns="http://www.w3.org/2000/svg">
<path fill-rule="evenodd" clip-rule="evenodd" d="M74.8617 16.783C74.8617 22.8503 69.8318 27.9321 63.4241 27.9321C57.0164 27.9321 51.9865 22.8503 51.9865 16.783C51.9865 10.7156 57.0164 5.6338 63.4241 5.6338C69.8318 5.6338 74.8617 10.7156 74.8617 16.783ZM80.4955 16.783C80.4955 26.0519 72.8524 33.5659 63.4241 33.5659C53.9958 33.5659 46.3527 26.0519 46.3527 16.783C46.3527 7.51399 53.9958 0 63.4241 0C72.8524 0 80.4955 7.51399 80.4955 16.783ZM40.2207 57.4125C44.8152 49.8972 53.4537 44.7743 63.4245 44.7743C73.3952 44.7743 82.0337 49.8972 86.6283 57.4125C87.4398 58.7399 89.1736 59.1581 90.501 58.3466C91.8283 57.5351 92.2465 55.8013 91.435 54.4739C85.8067 45.2678 75.338 39.1405 63.4245 39.1405C51.511 39.1405 41.0422 45.2678 35.414 54.4739C34.6025 55.8013 35.0207 57.5351 36.348 58.3466C37.6753 59.1581 39.4092 58.7399 40.2207 57.4125Z" fill="#BFBFBF"/>
<path d="M25.6523 90.3052H22.2593V70.9622H30.7853C32.738 70.9622 34.275 71.5422 35.3963 72.7022C36.5176 73.8622 37.0783 75.3026 37.0783 77.0232C37.0783 78.7246 36.5176 80.1552 35.3963 81.3152C34.275 82.4752 32.738 83.0552 30.7853 83.0552H25.6523V90.3052ZM30.3213 80.0682C31.288 80.0682 32.071 79.7879 32.6703 79.2272C33.289 78.6666 33.5983 77.9319 33.5983 77.0232C33.5983 76.0952 33.289 75.3509 32.6703 74.7902C32.071 74.2296 31.288 73.9492 30.3213 73.9492H25.6523V80.0682H30.3213ZM43.4692 90.3052H40.4242V76.2982H43.4692V78.3282C44.0298 77.6322 44.7065 77.0619 45.4992 76.6172C46.3112 76.1726 47.1522 75.9502 48.0222 75.9502V78.9662C47.7708 78.9082 47.4615 78.8792 47.0942 78.8792C46.4368 78.8792 45.7408 79.0726 45.0062 79.4592C44.2908 79.8266 43.7785 80.2616 43.4692 80.7642V90.3052ZM62.6289 88.5362C61.3142 89.9476 59.5742 90.6532 57.4089 90.6532C55.2436 90.6532 53.5036 89.9476 52.1889 88.5362C50.8742 87.1056 50.2169 85.3559 50.2169 83.2872C50.2169 81.1992 50.8742 79.4592 52.1889 78.0672C53.5036 76.6559 55.2436 75.9502 57.4089 75.9502C59.5742 75.9502 61.3142 76.6559 62.6289 78.0672C63.9436 79.4592 64.6009 81.1992 64.6009 83.2872C64.6009 85.3559 63.9436 87.1056 62.6289 88.5362ZM57.4089 87.9562C58.6656 87.9562 59.6516 87.5116 60.3669 86.6222C61.0822 85.7136 61.4399 84.6019 61.4399 83.2872C61.4399 81.9919 61.0822 80.8996 60.3669 80.0102C59.6516 79.1016 58.6656 78.6472 57.4089 78.6472C56.1716 78.6472 55.1856 79.1016 54.4509 80.0102C53.7356 80.8996 53.3779 81.9919 53.3779 83.2872C53.3779 84.6019 53.7356 85.7136 54.4509 86.6222C55.1856 87.5116 56.1716 87.9562 57.4089 87.9562ZM72.0892 90.3052H69.0442V78.9372H66.7242V76.2982H69.0442V75.5152C69.0442 73.9879 69.4502 72.7989 70.2622 71.9482C71.0742 71.0976 72.1376 70.6722 73.4522 70.6722C74.4576 70.6722 75.2792 70.8462 75.9172 71.1942L75.2502 73.4852C74.9216 73.2726 74.5156 73.1662 74.0322 73.1662C72.7369 73.1662 72.0892 73.9492 72.0892 75.5152V76.2982H74.9312V78.9372H72.0892V90.3052ZM80.1222 74.0362C79.7549 74.4036 79.3102 74.5872 78.7882 74.5872C78.2662 74.5872 77.8216 74.4036 77.4542 74.0362C77.0869 73.6689 76.9032 73.2242 76.9032 72.7022C76.9032 72.1802 77.0869 71.7356 77.4542 71.3682C77.8216 71.0009 78.2662 70.8172 78.7882 70.8172C79.3102 70.8172 79.7549 71.0009 80.1222 71.3682C80.4896 71.7356 80.6732 72.1802 80.6732 72.7022C80.6732 73.2242 80.4896 73.6689 80.1222 74.0362ZM80.2962 90.3052H77.2512V76.2982H80.2962V90.3052ZM87.8596 90.3052H84.8146V70.9622H87.8596V90.3052ZM98.8857 90.6532C96.7397 90.6532 94.9804 89.9766 93.6077 88.6232C92.235 87.2699 91.5487 85.4912 91.5487 83.2872C91.5487 81.2379 92.2157 79.5076 93.5497 78.0962C94.903 76.6656 96.6044 75.9502 98.6537 75.9502C100.722 75.9502 102.385 76.6656 103.642 78.0962C104.898 79.5076 105.527 81.3249 105.527 83.5482V84.3022H94.7387C94.8547 85.4042 95.309 86.3226 96.1017 87.0572C96.8944 87.7919 97.919 88.1592 99.1757 88.1592C100.8 88.1592 102.134 87.6372 103.178 86.5932L104.57 88.5942C103.1 89.9669 101.206 90.6532 98.8857 90.6532ZM102.598 82.1272C102.54 81.1606 102.172 80.3099 101.496 79.5752C100.838 78.8212 99.8814 78.4442 98.6247 78.4442C97.426 78.4442 96.4884 78.8212 95.8117 79.5752C95.135 80.3099 94.7677 81.1606 94.7097 82.1272H102.598Z" fill="#BFBFBF"/>
</svg>
