<svg width="67" height="56" viewBox="0 0 67 56" fill="none" xmlns="http://www.w3.org/2000/svg">
<path d="M31.9963 56C32.4591 56.0012 32.9176 55.911 33.3455 55.7344C33.7733 55.5578 34.162 55.2984 34.4892 54.9711C34.8164 54.6437 35.0757 54.2549 35.2521 53.827C35.4285 53.3991 35.5186 52.9406 35.5172 52.4777C35.5219 52.0123 35.4342 51.5506 35.2593 51.1193C35.0843 50.688 34.8256 50.2957 34.498 49.9651C34.1704 49.6344 33.7805 49.3721 33.3509 49.1931C32.9212 49.0142 32.4603 48.9223 31.9949 48.9227H29.8813C24.7905 48.9227 16.4281 48.4332 16.4281 43.1812L16.4281 19.0049H23.1201C24.8499 19.0049 25.9388 17.916 25.9388 16.1549C25.9388 15.3857 25.6505 14.585 25.1381 13.977L15.1466 1.87182C13.9934 0.431762 12.0724 0.431762 10.8564 1.87182L0.800639 13.977C0.321075 14.585 0 15.3857 0 16.1549C0 17.916 1.12035 19.0049 2.85005 19.0049H9.47923L9.47923 42.509C9.47923 52.5648 20.275 56 29.3689 56H31.9963ZM43.4079 36.9965C41.6795 36.9965 40.5906 38.0841 40.5906 39.8452C40.5906 40.6144 40.8775 41.4137 41.3585 42.0231L51.3501 54.1283C52.5346 55.5683 54.4242 55.5683 55.6402 54.1283L65.696 42.0231C66.2065 41.4114 66.4894 40.6419 66.4966 39.8452C66.4966 38.0841 65.4077 36.9952 63.678 36.9952H56.986V13.4911C56.986 3.43528 46.1574 0.000114441 37.0949 0.000114441H34.4689C34.0012 -0.00370851 33.5373 0.0856046 33.1045 0.26284C32.6716 0.440076 32.2783 0.701685 31.9476 1.03244C31.6168 1.36319 31.3552 1.75647 31.1779 2.18935C31.0007 2.62223 30.9114 3.08606 30.9152 3.5538C30.9147 4.01934 31.0065 4.48037 31.1853 4.91019C31.3642 5.34 31.6265 5.73007 31.9571 6.05779C32.2878 6.38552 32.6802 6.64438 33.1115 6.8194C33.5429 6.99443 34.0048 7.08213 34.4703 7.07743H36.5825C41.6419 7.07743 50.0371 7.5669 50.0371 12.8189V36.9952L43.4079 36.9965Z" fill="white"/>
</svg>
