<svg width="51" height="50" viewBox="0 0 51 50" fill="none" xmlns="http://www.w3.org/2000/svg">
<path fill-rule="evenodd" clip-rule="evenodd" d="M22.2882 4.43581C12.4406 4.43581 4.45764 12.3797 4.45764 22.179C4.45764 31.9784 12.4406 39.9223 22.2882 39.9223C27.3508 39.9223 31.9176 37.8256 35.166 34.4512C38.2359 31.2622 40.1187 26.9417 40.1187 22.179C40.1187 12.3797 32.1357 4.43581 22.2882 4.43581ZM0 22.179C0 9.9299 9.97876 0 22.2882 0C34.5976 0 44.5764 9.9299 44.5764 22.179C44.5764 27.3477 42.7974 32.1065 39.8185 35.877L50.61 46.6156L47.458 49.7522L36.7278 39.0746C32.8396 42.3678 27.796 44.3581 22.2882 44.3581C9.97876 44.3581 0 34.4282 0 22.179Z" fill="white"/>
</svg>
