<svg width="127" height="96" viewBox="0 0 127 96" fill="none" xmlns="http://www.w3.org/2000/svg">
<path d="M38.7988 90.35C35.5125 90.35 32.8678 89.3194 30.8649 87.2581L32.79 84.6037C34.4429 86.4122 36.4945 87.3164 38.9447 87.3164C40.2476 87.3164 41.2199 87.0539 41.8616 86.5289C42.5033 86.0038 42.8242 85.3718 42.8242 84.6329C42.8242 84.0106 42.5422 83.4953 41.9783 83.0869C41.4338 82.6591 40.7337 82.348 39.8781 82.1535C39.0419 81.959 38.1377 81.716 37.1654 81.4243C36.1931 81.1326 35.2791 80.8117 34.4235 80.4617C33.5873 80.1117 32.8872 79.5477 32.3233 78.7699C31.7788 77.9921 31.5066 77.0489 31.5066 75.9405C31.5066 74.2876 32.158 72.9264 33.4609 71.8568C34.7638 70.7679 36.475 70.2234 38.5947 70.2234C41.5699 70.2234 43.9909 71.1373 45.8577 72.9653L43.9326 75.503C42.4352 74.0056 40.549 73.257 38.2738 73.257C37.282 73.257 36.4848 73.4806 35.8819 73.9278C35.2986 74.3751 35.0069 74.9585 35.0069 75.678C35.0069 76.1641 35.211 76.5822 35.6194 76.9322C36.0472 77.2628 36.5917 77.5351 37.2529 77.749C37.914 77.9434 38.6433 78.1379 39.4406 78.3324C40.2573 78.5074 41.0643 78.7407 41.8616 79.0324C42.6783 79.3241 43.4173 79.6741 44.0784 80.0825C44.7396 80.4714 45.2744 81.0354 45.6827 81.7743C46.1105 82.4938 46.3244 83.3397 46.3244 84.312C46.3244 86.0427 45.6827 87.4817 44.3993 88.629C43.1353 89.7763 41.2685 90.35 38.7988 90.35ZM61.6601 90H58.5973V81.1326C58.5973 80.0825 58.3542 79.3436 57.8681 78.9157C57.4014 78.4879 56.7013 78.274 55.7679 78.274C55.029 78.274 54.3386 78.4588 53.6969 78.8282C53.0552 79.1783 52.5399 79.6158 52.151 80.1408V90H49.0882V70.5442H52.151V77.8073C52.676 77.185 53.3761 76.66 54.2511 76.2322C55.1262 75.7849 56.0791 75.5613 57.1097 75.5613C60.1433 75.5613 61.6601 77.0489 61.6601 80.0242V90ZM76.9843 88.2207C75.6619 89.6402 73.9118 90.35 71.7338 90.35C69.5559 90.35 67.8058 89.6402 66.4834 88.2207C65.1611 86.7817 64.4999 85.0218 64.4999 82.9411C64.4999 80.8409 65.1611 79.0908 66.4834 77.6906C67.8058 76.2711 69.5559 75.5613 71.7338 75.5613C73.9118 75.5613 75.6619 76.2711 76.9843 77.6906C78.3066 79.0908 78.9678 80.8409 78.9678 82.9411C78.9678 85.0218 78.3066 86.7817 76.9843 88.2207ZM71.7338 87.6373C72.9978 87.6373 73.9896 87.19 74.7091 86.2955C75.4286 85.3815 75.7883 84.2634 75.7883 82.9411C75.7883 81.6382 75.4286 80.5395 74.7091 79.645C73.9896 78.731 72.9978 78.274 71.7338 78.274C70.4893 78.274 69.4976 78.731 68.7586 79.645C68.0391 80.5395 67.6794 81.6382 67.6794 82.9411C67.6794 84.2634 68.0391 85.3815 68.7586 86.2955C69.4976 87.19 70.4893 87.6373 71.7338 87.6373ZM89.3875 90.35C87.579 90.35 86.0719 89.5819 84.8663 88.0456V95.3671H81.8035V75.9113H84.8663V77.8365C86.0136 76.3197 87.5207 75.5613 89.3875 75.5613C91.2349 75.5613 92.7322 76.2225 93.8795 77.5448C95.0463 78.8671 95.6297 80.6659 95.6297 82.9411C95.6297 85.2163 95.0463 87.0247 93.8795 88.3665C92.7322 89.6888 91.2349 90.35 89.3875 90.35ZM88.4833 87.6373C89.6889 87.6373 90.6515 87.1997 91.371 86.3247C92.1099 85.4496 92.4794 84.3217 92.4794 82.9411C92.4794 81.5604 92.1099 80.4423 91.371 79.5866C90.6515 78.7116 89.6889 78.274 88.4833 78.274C87.7832 78.274 87.0929 78.4588 86.4123 78.8282C85.7316 79.1783 85.2163 79.6158 84.8663 80.1408V85.7121C85.2163 86.2566 85.7316 86.7136 86.4123 87.0831C87.0929 87.4525 87.7832 87.6373 88.4833 87.6373Z" fill="#BFBFBF"/>
<path d="M52.1813 20.3327H41.3679C39.5742 20.3327 38.1813 21.8964 38.3879 23.6782L41.8941 53.9192C42.0695 55.4322 43.3509 56.5737 44.8741 56.5737H80.5359C82.0427 56.5737 83.3158 55.4559 83.5107 53.9617L87.4551 23.7207C87.6894 21.925 86.2913 20.3327 84.4803 20.3327H72.6653M52.1813 20.3327C52.1813 20.3327 50.0803 3 62.6859 3C74.7663 3 72.6653 20.3327 72.6653 20.3327M52.1813 20.3327H72.6653" stroke="#BFBFBF" stroke-width="5"/>
<circle cx="54.2818" cy="31.3626" r="4.72709" fill="#D9D9D9"/>
<circle cx="71.0894" cy="31.3626" r="4.72709" fill="#D9D9D9"/>
</svg>
